Coordinates
version=1
nRows=65
nColumns=12
inDegrees=yes

Units are S.I. units (second, meters, Newtons, ...)
Angles are in degrees

endheader
time	SC_y	SC_z	SC_x	AC_y	AC_z	AC_x	GH_y	GH_z	GH_yy	EL_x	PS_y
       0.0              -56.32         -2.892          16.24          42.73          4.829          2.005           85.6         -14.39          151.1          111.3          94.09
   0.01759              -56.33         -2.891          16.24          42.73          4.826          2.002          85.61         -14.39          151.0          111.3          94.07
   0.03517              -56.33          -2.89          16.24          42.73          4.822          1.999          85.62         -14.38          151.0          111.3          94.06
   0.05276              -56.33         -2.889          16.23          42.74          4.819          1.995          85.63         -14.38          151.0          111.3          94.05
   0.07034              -56.33         -2.887          16.23          42.74          4.815          1.991          85.64         -14.37          150.9          111.2          94.04
   0.08793              -56.33         -2.886          16.23          42.74          4.811          1.987          85.65         -14.37          150.8          111.2          94.02
    0.1055              -56.33         -2.885          16.23          42.75          4.806          1.983          85.66         -14.36          150.8          111.2          94.01
    0.1231              -56.33         -2.883          16.23          42.75          4.802          1.978          85.67         -14.35          150.7          111.2          93.99
    0.1407              -56.33         -2.882          16.22          42.76          4.796          1.973          85.69         -14.35          150.7          111.2          93.97
    0.1583              -56.33          -2.88          16.22          42.76          4.791          1.968           85.7         -14.34          150.6          111.2          93.95
    0.1759              -56.33         -2.878          16.22          42.77          4.785          1.962          85.72         -14.33          150.5          111.1          93.93
    0.1934              -56.33         -2.876          16.22          42.77          4.779          1.956          85.74         -14.32          150.4          111.1          93.91
     0.211              -56.33         -2.874          16.21          42.78          4.772           1.95          85.75         -14.31          150.3          111.1          93.89
    0.2286              -56.33         -2.872          16.21          42.79          4.765          1.943          85.77          -14.3          150.2          111.1          93.86
    0.2462              -56.33         -2.869          16.21          42.79          4.757          1.935          85.79         -14.29          150.1          111.0          93.83
    0.2638              -56.33         -2.867           16.2           42.8          4.748          1.926          85.82         -14.28          150.0          111.0           93.8
    0.2814              -56.33         -2.864           16.2          42.81          4.739          1.917          85.84         -14.27          149.9          111.0          93.77
    0.2989              -56.33          -2.86           16.2          42.82          4.729          1.907          85.87         -14.25          149.8          110.9          93.74
    0.3165              -56.33         -2.857          16.19          42.83          4.718          1.897           85.9         -14.24          149.6          110.9           93.7
    0.3341              -56.33         -2.853          16.19          42.84          4.705          1.885          85.93         -14.22          149.4          110.9          93.66
    0.3517              -56.34         -2.849          16.18          42.85          4.692          1.872          85.97          -14.2          149.3          110.8          93.61
    0.3693              -56.34         -2.844          16.17          42.87          4.677          1.857          86.01         -14.18          149.1          110.8          93.56
    0.3869              -56.34         -2.839          16.17          42.88          4.661          1.842          86.05         -14.16          148.9          110.7           93.5
    0.4045              -56.34         -2.833          16.16           42.9          4.643          1.824           86.1         -14.13          148.6          110.6          93.44
     0.422              -56.34         -2.827          16.15          42.92          4.623          1.805          86.16         -14.11          148.3          110.6          93.37
    0.4396              -56.34          -2.82          16.14          42.94          4.601          1.783          86.22         -14.08          148.1          110.5          93.29
    0.4572              -56.35         -2.812          16.13          42.96          4.576          1.758          86.28         -14.04          147.7          110.4           93.2
    0.4748              -56.35         -2.803          16.12          42.99          4.547          1.731          86.36          -14.0          147.3          110.3          93.11
    0.4924              -56.35         -2.793           16.1          43.02          4.516            1.7          86.44         -13.96          146.9          110.2           93.0
      0.51              -56.35         -2.782          16.09          43.05          4.479          1.665          86.54         -13.91          146.4          110.1          92.87
    0.5276              -56.36         -2.769          16.07          43.09          4.438          1.625          86.65         -13.85          145.9          109.9          92.73
    0.5451              -56.36         -2.754          16.05          43.14          4.391          1.579          86.78         -13.79          145.3          109.7          92.56
    0.5627              -56.37         -2.737          16.03          43.19          4.336          1.526          86.93         -13.71          144.5          109.6          92.37
    0.5803              -56.37         -2.717           16.0          43.25          4.273          1.464           87.1         -13.62          143.7          109.3          92.15
    0.5979              -56.38         -2.694          15.97          43.32          4.198          1.392           87.3         -13.52          142.7          109.1          91.89
    0.6155              -56.38         -2.666          15.93           43.4          4.111          1.306          87.53          -13.4          141.5          108.8          91.59
    0.6331              -56.39         -2.634          15.89           43.5          4.007          1.205          87.82         -13.26          140.2          108.4          91.23
    0.6507               -56.4         -2.595          15.83          43.61          3.882          1.084          88.15         -13.08          138.5          108.0          90.79
    0.6682              -56.41         -2.547          15.77          43.75          3.731         0.9368          88.56         -12.88          136.5          107.4          90.27
    0.6858              -56.43         -2.489          15.69          43.93          3.547         0.7573          89.05         -12.62          134.0          106.8          89.63
    0.7034              -56.45         -2.418          15.59          44.14          3.319         0.5359          89.67         -12.31          131.0          106.0          88.84
     0.721              -56.47         -2.329          15.47           44.4          3.035         0.2598          90.43         -11.92          127.2          105.0          87.85
    0.7386               -56.5         -2.217          15.32          44.74          2.678       -0.08805           91.4         -11.42          122.5          103.7          86.61
    0.7562              -56.54         -2.074          15.13          45.16          2.224        -0.5302          92.62          -10.8          116.5          102.1          85.03
    0.7738              -56.59         -1.891          14.88          45.71          1.642         -1.096          94.19         -9.994          108.7          100.0          83.01
    0.7913              -56.65         -1.657          14.56           46.4         0.8957         -1.823           96.2         -8.964           98.8          97.41          80.42
    0.8089              -56.72         -1.358          14.15           47.3       -0.05765          -2.75          98.77         -7.649          86.13          94.04           77.1
    0.8265              -56.82        -0.9813          13.64          48.42         -1.256         -3.917          102.0         -5.995           70.2          89.81          72.94
    0.8441              -56.94        -0.5226          13.02          49.78         -2.717         -5.338          105.9          -3.98          50.78          84.65          67.86
    0.8617              -57.08        0.00899           12.3          51.37          -4.41         -6.986          110.5         -1.644          28.27          78.67          61.98
    0.8793              -57.23         0.5846          11.52          53.08         -6.244          -8.77          115.4         0.8853          3.903           72.2          55.61
    0.8968              -57.38           1.16          10.73           54.8         -8.077         -10.55          120.4          3.415         -20.47          65.72          49.23
    0.9144              -57.52          1.692          10.01          56.38         -9.771          -12.2          124.9          5.751         -42.97          59.74          43.35
     0.932              -57.64          2.151          9.388          57.74         -11.23         -13.62          128.9          7.766         -62.39          54.58          38.27
    0.9496              -57.74          2.527          8.876          58.87         -12.43         -14.79          132.1           9.42         -78.33          50.35          34.11
    0.9672              -57.81          2.826           8.47          59.76         -13.38         -15.72          134.7          10.73          -91.0          46.98           30.8
    0.9848              -57.88          3.061          8.151          60.45         -14.13         -16.44          136.7          11.76         -100.9          44.35           28.2
     1.002              -57.92          3.243          7.903           61.0         -14.71         -17.01          138.2          12.57         -108.6          42.29          26.18
      1.02              -57.96          3.386          7.709          61.42         -15.17         -17.45          139.5          13.19         -114.7          40.69           24.6
     1.038              -57.99          3.498          7.557          61.76         -15.52          -17.8          140.4          13.69         -119.4          39.43          23.36
     1.055              -58.01          3.587          7.436          62.02         -15.81         -18.08          141.2          14.08         -123.2          38.43          22.37
     1.073              -58.03          3.659          7.339          62.24         -16.03          -18.3          141.8          14.39         -126.2          37.62          21.58
      1.09              -58.05          3.716           7.26          62.41         -16.22         -18.48          142.3          14.65         -128.7          36.97          20.94
     1.108              -58.06          3.764          7.196          62.55         -16.37         -18.62          142.7          14.85         -130.7          36.44          20.42
     1.125              -58.07          3.803          7.143          62.67         -16.49         -18.75          143.1          15.03         -132.4           36.0          19.98
